{
  "accessors": [
    {
      "bufferView": 2,
      "componentType": 5126,
      "count": 9223,
      "max": [
        25.0,
        0.8808841705322266,
        31.081575393676758
      ],
      "min": [
        -25.0,
        -0.8801109194755554,
        -31.076644897460938
      ],
      "type": "VEC3"
    },
    {
      "bufferView": 2,
      "byteOffset": 110676,
      "componentType": 5126,
      "count": 9223,
      "max": [
        0.9997504949569702,
        1.0,
        1.0
      ],
      "min": [
        -0.9984833598136902,
        -1.0,
        -0.9997661113739014
      ],
      "type": "VEC3"
    },
    {
      "bufferView": 3,
      "componentType": 5126,
      "count": 9223,
      "max": [
        1.0,
        0.999964714050293,
        0.9876246452331543,
        1.0
      ],
      "min": [
        -0.999688982963562,
        -1.0,
        -0.9999082684516907,
        -1.0
      ],
      "type": "VEC4"
    },
    {
      "bufferView": 1,
      "componentType": 5126,
      "count": 9223,
      "max": [
        0.9978275299072266,
        0.97368323802948
      ],
      "min": [
        0.0,
        0.0
      ],
      "type": "VEC2"
    },
    {
      "bufferView": 0,
      "componentType": 5125,
      "count": 37008,
      "type": "SCALAR"
    },
    {
      "bufferView": 2,
      "byteOffset": 221352,
      "componentType": 5126,
      "count": 576,
      "max": [
        -24.164945602416992,
        0.7746545672416687,
        -11.494372367858887
      ],
      "min": [
        -24.91018295288086,
        -0.3040168285369873,
        -14.468416213989258
      ],
      "type": "VEC3"
    },
    {
      "bufferView": 2,
      "byteOffset": 228264,
      "componentType": 5126,
      "count": 576,
      "max": [
        1.0,
        1.0,
        1.0
      ],
      "min": [
        -1.0,
        -1.0,
        -1.0
      ],
      "type": "VEC3"
    },
    {
      "bufferView": 3,
      "byteOffset": 147568,
      "componentType": 5126,
      "count": 576,
      "max": [
        1.0,
        0.8882517218589783,
        0.8164688348770142,
        1.0
      ],
      "min": [
        -1.0,
        -1.0,
        -0.707126796245575,
        -1.0
      ],
      "type": "VEC4"
    },
    {
      "bufferView": 1,
      "byteOffset": 73784,
      "componentType": 5126,
      "count": 576,
      "max": [
        0.5993415713310242,
        0.7406456470489502
      ],
      "min": [
        0.06638729572296143,
        0.7043290138244629
      ],
      "type": "VEC2"
    },
    {
      "bufferView": 0,
      "byteOffset": 148032,
      "componentType": 5125,
      "count": 852,
      "type": "SCALAR"
    },
    {
      "bufferView": 2,
      "byteOffset": 235176,
      "componentType": 5126,
      "count": 240,
      "max": [
        22.10993766784668,
        -0.15897506475448608,
        -15.165573120117188
      ],
      "min": [
        -22.932662963867188,
        -0.35897499322891235,
        -30.55816650390625
      ],
      "type": "VEC3"
    },
    {
      "bufferView": 2,
      "byteOffset": 238056,
      "componentType": 5126,
      "count": 240,
      "max": [
        1.0,
        1.0,
        1.0
      ],
      "min": [
        -1.0,
        -1.0,
        -1.0
      ],
      "type": "VEC3"
    },
    {
      "bufferView": 3,
      "byteOffset": 156784,
      "componentType": 5126,
      "count": 240,
      "max": [
        1.0,
        1.0,
        0.0,
        1.0
      ],
      "min": [
        -1.0,
        -1.0,
        -1.5412721268148744e-06,
        -1.0
      ],
      "type": "VEC4"
    },
    {
      "bufferView": 1,
      "byteOffset": 78392,
      "componentType": 5126,
      "count": 240,
      "max": [
        0.7753928899765015,
        0.7769573926925659
      ],
      "min": [
        0.3450845181941986,
        0.5991418361663818
      ],
      "type": "VEC2"
    },
    {
      "bufferView": 0,
      "byteOffset": 151440,
      "componentType": 5125,
      "count": 360,
      "type": "SCALAR"
    }
  ],
  "asset": {
    "extras": {
      "author": "James_J (https://sketchfab.com/James_J)",
      "license": "CC-BY-4.0 (http://creativecommons.org/licenses/by/4.0/)",
      "source": "https://sketchfab.com/3d-models/sd-card-adapter-02f7f045679d402da9b9f280030821d4",
      "title": "SD card adapter"
    },
    "generator": "Sketchfab-12.66.0",
    "version": "2.0"
  },
  "bufferViews": [
    {
      "buffer": 0,
      "byteLength": 152880,
      "name": "floatBufferViews",
      "target": 34963
    },
    {
      "buffer": 0,
      "byteLength": 80312,
      "byteOffset": 152880,
      "byteStride": 8,
      "name": "floatBufferViews",
      "target": 34962
    },
    {
      "buffer": 0,
      "byteLength": 240936,
      "byteOffset": 233192,
      "byteStride": 12,
      "name": "floatBufferViews",
      "target": 34962
    },
    {
      "buffer": 0,
      "byteLength": 160624,
      "byteOffset": 474128,
      "byteStride": 16,
      "name": "floatBufferViews",
      "target": 34962
    }
  ],
  "buffers": [
    {
      "byteLength": 634752,
      "uri": "scene.bin"
    }
  ],
  "images": [
    {
      "uri": "textures/material_baseColor.jpeg"
    },
    {
      "uri": "textures/material_metallicRoughness.png"
    },
    {
      "uri": "textures/material_normal.png"
    }
  ],
  "materials": [
    {
      "doubleSided": true,
      "name": "material",
      "normalTexture": {
        "index": 2
      },
      "pbrMetallicRoughness": {
        "baseColorTexture": {
          "index": 0
        },
        "metallicRoughnessTexture": {
          "index": 1
        }
      }
    }
  ],
  "meshes": [
    {
      "name": "Cube_Tex_0",
      "primitives": [
        {
          "attributes": {
            "NORMAL": 1,
            "POSITION": 0,
            "TANGENT": 2,
            "TEXCOORD_0": 3
          },
          "indices": 4,
          "material": 0,
          "mode": 4
        }
      ]
    },
    {
      "name": "Cube.001_Tex_0",
      "primitives": [
        {
          "attributes": {
            "NORMAL": 6,
            "POSITION": 5,
            "TANGENT": 7,
            "TEXCOORD_0": 8
          },
          "indices": 9,
          "material": 0,
          "mode": 4
        }
      ]
    },
    {
      "name": "Plane_Tex_0",
      "primitives": [
        {
          "attributes": {
            "NORMAL": 11,
            "POSITION": 10,
            "TANGENT": 12,
            "TEXCOORD_0": 13
          },
          "indices": 14,
          "material": 0,
          "mode": 4
        }
      ]
    }
  ],
  "nodes": [
    {
      "children": [
        1
      ],
      "matrix": [
        1.0,
        0.0,
        0.0,
        0.0,
        0.0,
        2.220446049250313e-16,
        -1.0,
        0.0,
        0.0,
        1.0,
        2.220446049250313e-16,
        0.0,
        0.0,
        0.0,
        0.0,
        1.0
      ],
      "name": "Sketchfab_model"
    },
    {
      "children": [
        2
      ],
      "matrix": [
        1.0,
        0.0,
        0.0,
        0.0,
        0.0,
        0.0,
        1.0,
        0.0,
        0.0,
        -1.0,
        0.0,
        0.0,
        0.0,
        0.0,
        0.0,
        1.0
      ],
      "name": "karta.fbx"
    },
    {
      "children": [
        3,
        5,
        7
      ],
      "name": "RootNode"
    },
    {
      "children": [
        4
      ],
      "matrix": [
        1.0,
        0.0,
        0.0,
        0.0,
        0.0,
        -0.9999999985785775,
        5.331833891348364e-05,
        0.0,
        0.0,
        -5.331833891348364e-05,
        -0.9999999985785775,
        0.0,
        0.0,
        0.0,
        0.0,
        1.0
      ],
      "name": "Cube"
    },
    {
      "mesh": 0,
      "name": "Cube_Tex_0"
    },
    {
      "children": [
        6
      ],
      "matrix": [
        1.0,
        0.0,
        0.0,
        0.0,
        0.0,
        -0.9999999985785775,
        5.331833891348364e-05,
        0.0,
        0.0,
        -5.331833891348364e-05,
        -0.9999999985785775,
        0.0,
        0.0,
        0.0,
        0.0,
        1.0
      ],
      "name": "Cube.001"
    },
    {
      "mesh": 1,
      "name": "Cube.001_Tex_0"
    },
    {
      "children": [
        8
      ],
      "matrix": [
        1.0,
        0.0,
        0.0,
        0.0,
        0.0,
        -0.9999999985785775,
        5.331833891348364e-05,
        0.0,
        0.0,
        -5.331833891348364e-05,
        -0.9999999985785775,
        0.0,
        0.0,
        0.0,
        0.0,
        1.0
      ],
      "name": "Plane"
    },
    {
      "mesh": 2,
      "name": "Plane_Tex_0"
    }
  ],
  "samplers": [
    {
      "magFilter": 9729,
      "minFilter": 9987,
      "wrapS": 10497,
      "wrapT": 10497
    }
  ],
  "scene": 0,
  "scenes": [
    {
      "name": "Sketchfab_Scene",
      "nodes": [
        0
      ]
    }
  ],
  "textures": [
    {
      "sampler": 0,
      "source": 0
    },
    {
      "sampler": 0,
      "source": 1
    },
    {
      "sampler": 0,
      "source": 2
    }
  ]
}
